<?xml version="1.0" encoding="UTF-8"?>
<!DOCTYPE svg PUBLIC "-//W3C//DTD SVG 1.1//EN" "http://www.w3.org/Graphics/SVG/1.1/DTD/svg11.dtd">
<!-- Creator: CorelDRAW 2018 (64 Bit Versão de avaliação) -->
<svg xmlns="http://www.w3.org/2000/svg" xml:space="preserve" width="100mm" height="100mm" version="1.1" shape-rendering="geometricPrecision" text-rendering="geometricPrecision" image-rendering="optimizeQuality" fill-rule="evenodd" clip-rule="evenodd"
viewBox="0 0 10000 10000"
 xmlns:xlink="http://www.w3.org/1999/xlink">
 <g id="Camada_x0020_1">
  <metadata id="CorelCorpID_0Corel-Layer"/>
  <rect fill="none" width="10000" height="10000"/>
  <g id="_2841765304320">
   <g>
    <path fill="#6633FF" d="M7318.46 3779.98c0,173.26 284.66,542.4 284.66,1220.01 0,1426.84 -1175.82,2602.67 -2602.67,2602.67l0 -1301.33 -1758.72 1738.62 1748.91 1727.87 9.81 -1270.49c754.23,0 1388.17,-239.23 1952.62,-609.39 916.34,-600.96 1544.73,-1725.33 1544.73,-2847.29 0,-781.82 -257.07,-1357.37 -528.67,-1870.66 -174.4,46.56 -650.67,600.9 -650.67,609.99z"/>
    <path fill="#6633FF" d="M5000.45 1502.65c-1204.62,26.84 -2357.52,666.53 -2976.9,1699.76 -213.93,356.88 -397.32,814.44 -464.08,1243.93 -85.51,550.17 -62.98,1021.93 110.97,1565.66 98.66,308.34 218.49,548.02 361.34,817.99 230.58,-61.56 479.73,-468.3 691.34,-610 -646.07,-1221 -271.55,-2554.46 800.66,-3347.35 358.42,-265.05 985.49,-464.38 1476.67,-475.32l0 1301.34 1738.87 -1717.83 -1728.82 -1748.9 -10.05 1270.72z"/>
   </g>
  </g>
 </g>
</svg>
